<mxfile host="Electron" modified="2024-02-14T17:53:38.692Z" agent="Mozilla/5.0 (Windows NT 10.0; Win64; x64) AppleWebKit/537.36 (KHTML, like Gecko) draw.io/23.0.2 Chrome/120.0.6099.109 Electron/28.1.0 Safari/537.36" etag="yggKQPocib5W7kcNt-Gx" version="23.0.2" type="device">
  <diagram name="Страница — 1" id="51ZgX5esinQ6gx2SvqPQ">
    <mxGraphModel dx="1418" dy="868" grid="1" gridSize="10" guides="1" tooltips="1" connect="1" arrows="1" fold="1" page="1" pageScale="1" pageWidth="827" pageHeight="1169" math="0" shadow="0">
      <root>
        <mxCell id="0" />
        <mxCell id="1" parent="0" />
        <mxCell id="eaqOqdAc2AWnGtmZ5df4-1" value="алгоритм Движения главного героя" style="swimlane;whiteSpace=wrap;html=1;" parent="1" vertex="1">
          <mxGeometry x="70" y="80" width="670" height="800" as="geometry" />
        </mxCell>
        <mxCell id="-LtJfmW0PAiQlrcqVIGE-3" style="edgeStyle=orthogonalEdgeStyle;rounded=0;orthogonalLoop=1;jettySize=auto;html=1;" parent="eaqOqdAc2AWnGtmZ5df4-1" source="-LtJfmW0PAiQlrcqVIGE-1" edge="1">
          <mxGeometry relative="1" as="geometry">
            <mxPoint x="320" y="150" as="targetPoint" />
          </mxGeometry>
        </mxCell>
        <mxCell id="-LtJfmW0PAiQlrcqVIGE-5" style="edgeStyle=orthogonalEdgeStyle;rounded=0;orthogonalLoop=1;jettySize=auto;html=1;entryX=0.5;entryY=0;entryDx=0;entryDy=0;" parent="eaqOqdAc2AWnGtmZ5df4-1" source="-LtJfmW0PAiQlrcqVIGE-1" target="-LtJfmW0PAiQlrcqVIGE-4" edge="1">
          <mxGeometry relative="1" as="geometry" />
        </mxCell>
        <mxCell id="-LtJfmW0PAiQlrcqVIGE-1" value="Начало&lt;br&gt;Задать параметры движения, прыжка, проверку контакта с землей, флаг двойного прыжка&lt;br&gt;rigidbody!!!" style="shape=hexagon;perimeter=hexagonPerimeter2;whiteSpace=wrap;html=1;fixedSize=1;" parent="eaqOqdAc2AWnGtmZ5df4-1" vertex="1">
          <mxGeometry x="215" y="30" width="210" height="80" as="geometry" />
        </mxCell>
        <mxCell id="-LtJfmW0PAiQlrcqVIGE-7" style="edgeStyle=orthogonalEdgeStyle;rounded=0;orthogonalLoop=1;jettySize=auto;html=1;entryX=0;entryY=0.5;entryDx=0;entryDy=0;" parent="eaqOqdAc2AWnGtmZ5df4-1" source="-LtJfmW0PAiQlrcqVIGE-4" target="-LtJfmW0PAiQlrcqVIGE-6" edge="1">
          <mxGeometry relative="1" as="geometry" />
        </mxCell>
        <mxCell id="-LtJfmW0PAiQlrcqVIGE-9" style="edgeStyle=orthogonalEdgeStyle;rounded=0;orthogonalLoop=1;jettySize=auto;html=1;" parent="eaqOqdAc2AWnGtmZ5df4-1" source="-LtJfmW0PAiQlrcqVIGE-4" target="-LtJfmW0PAiQlrcqVIGE-8" edge="1">
          <mxGeometry relative="1" as="geometry" />
        </mxCell>
        <mxCell id="-LtJfmW0PAiQlrcqVIGE-4" value="Проверка касания земли" style="rounded=0;whiteSpace=wrap;html=1;" parent="eaqOqdAc2AWnGtmZ5df4-1" vertex="1">
          <mxGeometry x="260" y="130" width="120" height="60" as="geometry" />
        </mxCell>
        <mxCell id="-LtJfmW0PAiQlrcqVIGE-6" value="Переменная isGrounded" style="shape=parallelogram;perimeter=parallelogramPerimeter;whiteSpace=wrap;html=1;fixedSize=1;" parent="eaqOqdAc2AWnGtmZ5df4-1" vertex="1">
          <mxGeometry x="440" y="150" width="120" height="60" as="geometry" />
        </mxCell>
        <mxCell id="-LtJfmW0PAiQlrcqVIGE-13" style="edgeStyle=orthogonalEdgeStyle;rounded=0;orthogonalLoop=1;jettySize=auto;html=1;" parent="eaqOqdAc2AWnGtmZ5df4-1" source="-LtJfmW0PAiQlrcqVIGE-8" target="-LtJfmW0PAiQlrcqVIGE-10" edge="1">
          <mxGeometry relative="1" as="geometry" />
        </mxCell>
        <mxCell id="-LtJfmW0PAiQlrcqVIGE-8" value="Метод горизонтального движение&lt;br&gt;Используются GetAxis и AddForce" style="rounded=0;whiteSpace=wrap;html=1;" parent="eaqOqdAc2AWnGtmZ5df4-1" vertex="1">
          <mxGeometry x="240" y="211" width="160" height="60" as="geometry" />
        </mxCell>
        <mxCell id="-LtJfmW0PAiQlrcqVIGE-12" style="edgeStyle=orthogonalEdgeStyle;rounded=0;orthogonalLoop=1;jettySize=auto;html=1;" parent="eaqOqdAc2AWnGtmZ5df4-1" source="-LtJfmW0PAiQlrcqVIGE-10" target="-LtJfmW0PAiQlrcqVIGE-11" edge="1">
          <mxGeometry relative="1" as="geometry" />
        </mxCell>
        <mxCell id="-LtJfmW0PAiQlrcqVIGE-16" style="edgeStyle=orthogonalEdgeStyle;rounded=0;orthogonalLoop=1;jettySize=auto;html=1;" parent="eaqOqdAc2AWnGtmZ5df4-1" source="-LtJfmW0PAiQlrcqVIGE-10" target="-LtJfmW0PAiQlrcqVIGE-15" edge="1">
          <mxGeometry relative="1" as="geometry" />
        </mxCell>
        <mxCell id="-LtJfmW0PAiQlrcqVIGE-10" value="ГГ на земле&lt;br&gt;isGrounded!=0" style="rhombus;whiteSpace=wrap;html=1;" parent="eaqOqdAc2AWnGtmZ5df4-1" vertex="1">
          <mxGeometry x="235" y="300" width="170" height="80" as="geometry" />
        </mxCell>
        <mxCell id="-LtJfmW0PAiQlrcqVIGE-11" value="canDoubleJump = true" style="shape=parallelogram;perimeter=parallelogramPerimeter;whiteSpace=wrap;html=1;fixedSize=1;" parent="eaqOqdAc2AWnGtmZ5df4-1" vertex="1">
          <mxGeometry x="440" y="310" width="160" height="60" as="geometry" />
        </mxCell>
        <mxCell id="-LtJfmW0PAiQlrcqVIGE-14" value="Нет" style="text;html=1;strokeColor=none;fillColor=none;align=center;verticalAlign=middle;whiteSpace=wrap;rounded=0;" parent="eaqOqdAc2AWnGtmZ5df4-1" vertex="1">
          <mxGeometry x="374" y="482" width="60" height="30" as="geometry" />
        </mxCell>
        <mxCell id="-LtJfmW0PAiQlrcqVIGE-32" style="edgeStyle=orthogonalEdgeStyle;rounded=0;orthogonalLoop=1;jettySize=auto;html=1;entryX=0;entryY=0.5;entryDx=0;entryDy=0;exitX=0;exitY=0.5;exitDx=0;exitDy=0;" parent="eaqOqdAc2AWnGtmZ5df4-1" source="-LtJfmW0PAiQlrcqVIGE-15" target="-LtJfmW0PAiQlrcqVIGE-4" edge="1">
          <mxGeometry relative="1" as="geometry">
            <Array as="points">
              <mxPoint x="140" y="450" />
              <mxPoint x="140" y="160" />
            </Array>
          </mxGeometry>
        </mxCell>
        <mxCell id="-LtJfmW0PAiQlrcqVIGE-15" value="Клавиша прыжка нажата?&lt;br style=&quot;border-color: var(--border-color);&quot;&gt;Input.GetButtonDown(&quot;Jump&quot;)" style="rhombus;whiteSpace=wrap;html=1;" parent="eaqOqdAc2AWnGtmZ5df4-1" vertex="1">
          <mxGeometry x="235" y="410" width="170" height="80" as="geometry" />
        </mxCell>
        <mxCell id="-LtJfmW0PAiQlrcqVIGE-26" style="edgeStyle=orthogonalEdgeStyle;rounded=0;orthogonalLoop=1;jettySize=auto;html=1;exitX=0;exitY=0.5;exitDx=0;exitDy=0;" parent="eaqOqdAc2AWnGtmZ5df4-1" source="-LtJfmW0PAiQlrcqVIGE-18" target="-LtJfmW0PAiQlrcqVIGE-25" edge="1">
          <mxGeometry relative="1" as="geometry" />
        </mxCell>
        <mxCell id="-LtJfmW0PAiQlrcqVIGE-18" value="ГГ на земле?&lt;br&gt;If(isGrounded)" style="rhombus;whiteSpace=wrap;html=1;" parent="eaqOqdAc2AWnGtmZ5df4-1" vertex="1">
          <mxGeometry x="435" y="470" width="170" height="80" as="geometry" />
        </mxCell>
        <mxCell id="-LtJfmW0PAiQlrcqVIGE-19" style="edgeStyle=orthogonalEdgeStyle;rounded=0;orthogonalLoop=1;jettySize=auto;html=1;entryX=0.5;entryY=0;entryDx=0;entryDy=0;" parent="eaqOqdAc2AWnGtmZ5df4-1" source="-LtJfmW0PAiQlrcqVIGE-15" target="-LtJfmW0PAiQlrcqVIGE-18" edge="1">
          <mxGeometry relative="1" as="geometry" />
        </mxCell>
        <mxCell id="-LtJfmW0PAiQlrcqVIGE-34" style="edgeStyle=orthogonalEdgeStyle;rounded=0;orthogonalLoop=1;jettySize=auto;html=1;entryX=0;entryY=0.5;entryDx=0;entryDy=0;exitX=0.5;exitY=1;exitDx=0;exitDy=0;" parent="eaqOqdAc2AWnGtmZ5df4-1" source="-LtJfmW0PAiQlrcqVIGE-21" target="-LtJfmW0PAiQlrcqVIGE-4" edge="1">
          <mxGeometry relative="1" as="geometry">
            <Array as="points">
              <mxPoint x="590" y="750" />
              <mxPoint x="50" y="750" />
              <mxPoint x="50" y="160" />
            </Array>
          </mxGeometry>
        </mxCell>
        <mxCell id="-LtJfmW0PAiQlrcqVIGE-21" value="Jump()" style="rounded=0;whiteSpace=wrap;html=1;" parent="eaqOqdAc2AWnGtmZ5df4-1" vertex="1">
          <mxGeometry x="530" y="600" width="120" height="60" as="geometry" />
        </mxCell>
        <mxCell id="-LtJfmW0PAiQlrcqVIGE-22" style="edgeStyle=orthogonalEdgeStyle;rounded=0;orthogonalLoop=1;jettySize=auto;html=1;entryX=0.442;entryY=0.033;entryDx=0;entryDy=0;entryPerimeter=0;exitX=1;exitY=0.5;exitDx=0;exitDy=0;" parent="eaqOqdAc2AWnGtmZ5df4-1" source="-LtJfmW0PAiQlrcqVIGE-18" target="-LtJfmW0PAiQlrcqVIGE-21" edge="1">
          <mxGeometry relative="1" as="geometry" />
        </mxCell>
        <mxCell id="-LtJfmW0PAiQlrcqVIGE-29" style="edgeStyle=orthogonalEdgeStyle;rounded=0;orthogonalLoop=1;jettySize=auto;html=1;exitX=1;exitY=0.5;exitDx=0;exitDy=0;" parent="eaqOqdAc2AWnGtmZ5df4-1" source="-LtJfmW0PAiQlrcqVIGE-25" target="-LtJfmW0PAiQlrcqVIGE-28" edge="1">
          <mxGeometry relative="1" as="geometry" />
        </mxCell>
        <mxCell id="-LtJfmW0PAiQlrcqVIGE-31" style="edgeStyle=orthogonalEdgeStyle;rounded=0;orthogonalLoop=1;jettySize=auto;html=1;entryX=0;entryY=0.5;entryDx=0;entryDy=0;exitX=0;exitY=0.5;exitDx=0;exitDy=0;" parent="eaqOqdAc2AWnGtmZ5df4-1" source="-LtJfmW0PAiQlrcqVIGE-25" target="-LtJfmW0PAiQlrcqVIGE-4" edge="1">
          <mxGeometry relative="1" as="geometry">
            <Array as="points">
              <mxPoint x="110" y="600" />
              <mxPoint x="110" y="160" />
            </Array>
          </mxGeometry>
        </mxCell>
        <mxCell id="-LtJfmW0PAiQlrcqVIGE-25" value="Флаг двойного прыжка&lt;br&gt;if(CanDoubleJump)" style="rhombus;whiteSpace=wrap;html=1;" parent="eaqOqdAc2AWnGtmZ5df4-1" vertex="1">
          <mxGeometry x="235" y="560" width="170" height="80" as="geometry" />
        </mxCell>
        <mxCell id="-LtJfmW0PAiQlrcqVIGE-33" style="edgeStyle=orthogonalEdgeStyle;rounded=0;orthogonalLoop=1;jettySize=auto;html=1;entryX=0;entryY=0.5;entryDx=0;entryDy=0;exitX=0;exitY=0.5;exitDx=0;exitDy=0;" parent="eaqOqdAc2AWnGtmZ5df4-1" source="-LtJfmW0PAiQlrcqVIGE-28" target="-LtJfmW0PAiQlrcqVIGE-4" edge="1">
          <mxGeometry relative="1" as="geometry">
            <Array as="points">
              <mxPoint x="80" y="680" />
              <mxPoint x="80" y="160" />
            </Array>
          </mxGeometry>
        </mxCell>
        <mxCell id="-LtJfmW0PAiQlrcqVIGE-28" value="Jump()&lt;br&gt;CanDoubleJump = false" style="rounded=0;whiteSpace=wrap;html=1;" parent="eaqOqdAc2AWnGtmZ5df4-1" vertex="1">
          <mxGeometry x="380" y="650" width="120" height="60" as="geometry" />
        </mxCell>
        <mxCell id="-LtJfmW0PAiQlrcqVIGE-20" value="Да" style="text;html=1;strokeColor=none;fillColor=none;align=center;verticalAlign=middle;whiteSpace=wrap;rounded=0;" parent="1" vertex="1">
          <mxGeometry x="469" y="395" width="60" height="30" as="geometry" />
        </mxCell>
        <mxCell id="-LtJfmW0PAiQlrcqVIGE-23" value="Да" style="text;html=1;strokeColor=none;fillColor=none;align=center;verticalAlign=middle;whiteSpace=wrap;rounded=0;" parent="1" vertex="1">
          <mxGeometry x="678" y="608" width="60" height="30" as="geometry" />
        </mxCell>
        <mxCell id="-LtJfmW0PAiQlrcqVIGE-27" value="Да" style="text;html=1;strokeColor=none;fillColor=none;align=center;verticalAlign=middle;whiteSpace=wrap;rounded=0;" parent="1" vertex="1">
          <mxGeometry x="469" y="502" width="60" height="30" as="geometry" />
        </mxCell>
        <mxCell id="-LtJfmW0PAiQlrcqVIGE-30" value="Да" style="text;html=1;strokeColor=none;fillColor=none;align=center;verticalAlign=middle;whiteSpace=wrap;rounded=0;" parent="1" vertex="1">
          <mxGeometry x="460" y="652" width="60" height="30" as="geometry" />
        </mxCell>
        <mxCell id="-LtJfmW0PAiQlrcqVIGE-35" value="Нет" style="text;html=1;strokeColor=none;fillColor=none;align=center;verticalAlign=middle;whiteSpace=wrap;rounded=0;" parent="1" vertex="1">
          <mxGeometry x="245" y="502" width="60" height="30" as="geometry" />
        </mxCell>
        <mxCell id="-LtJfmW0PAiQlrcqVIGE-36" value="Нет" style="text;html=1;strokeColor=none;fillColor=none;align=center;verticalAlign=middle;whiteSpace=wrap;rounded=0;" parent="1" vertex="1">
          <mxGeometry x="246" y="652" width="60" height="30" as="geometry" />
        </mxCell>
      </root>
    </mxGraphModel>
  </diagram>
</mxfile>
